<svg width="37" height="39" viewBox="0 0 37 39" fill="none" xmlns="http://www.w3.org/2000/svg">
<path d="M3.34214 32.033H33.0821M7.06014 38.174L5.82114 32.033H30.6031L29.3641 38.174M24.1641 31.978L25.4031 22.878C28.0018 21.6943 30.2704 19.8912 32.0102 17.6268C33.75 15.3624 34.9078 12.7059 35.3821 9.89C35.4353 9.53556 35.411 9.17382 35.3111 8.82963C35.2112 8.48545 35.0379 8.16697 34.8032 7.89609C34.5685 7.62521 34.278 7.40835 33.9516 7.2604C33.6251 7.11245 33.2705 7.03692 32.9121 7.039C32.3226 7.04441 31.7542 7.25916 31.3083 7.64493C30.8625 8.03069 30.5682 8.56236 30.4781 9.145C29.9811 12.0411 28.4763 14.6683 26.2296 16.5622C23.9829 18.4561 21.1391 19.4949 18.2006 19.4949C15.2622 19.4949 12.4183 18.4561 10.1717 16.5622C7.925 14.6683 6.42018 12.0411 5.92314 9.145C5.83332 8.56277 5.53957 8.03139 5.09431 7.64566C4.64904 7.25992 4.08122 7.04491 3.49214 7.039C3.13514 7.03711 2.78195 7.11234 2.45672 7.25956C2.13149 7.40678 1.84189 7.6225 1.60774 7.89198C1.37358 8.16146 1.20039 8.47834 1.10001 8.82093C0.999632 9.16353 0.974433 9.52377 1.02614 9.877C1.48566 12.6066 2.58752 15.1878 4.24085 17.4078C5.89417 19.6277 8.05158 21.4228 10.5351 22.645L11.7741 31.976M25.0181 7.815C25.0181 11.5788 21.967 14.63 18.2031 14.63C14.4393 14.63 11.3881 11.5788 11.3881 7.815C11.3881 4.05118 14.4393 1 18.2031 1C21.967 1 25.0181 4.05118 25.0181 7.815Z" stroke="#004A99" stroke-width="1.5" stroke-linecap="round" stroke-linejoin="round"/>
</svg>
