<svg width="17" height="16" viewBox="0 0 17 16" fill="none" xmlns="http://www.w3.org/2000/svg">
<path d="M7.13636 2.4H16M7.13636 2.4C7.13636 2.7713 6.9927 3.1274 6.73696 3.38995C6.48123 3.6525 6.13439 3.8 5.77273 3.8C5.41107 3.8 5.06422 3.6525 4.80849 3.38995C4.55276 3.1274 4.40909 2.7713 4.40909 2.4M7.13636 2.4C7.13636 2.0287 6.9927 1.6726 6.73696 1.41005C6.48123 1.1475 6.13439 1 5.77273 1C5.41107 1 5.06422 1.1475 4.80849 1.41005C4.55276 1.6726 4.40909 2.0287 4.40909 2.4M4.40909 2.4H1M7.13636 13.6H16M7.13636 13.6C7.13636 13.9713 6.9927 14.3274 6.73696 14.5899C6.48123 14.8525 6.13439 15 5.77273 15C5.41107 15 5.06422 14.8525 4.80849 14.5899C4.55276 14.3274 4.40909 13.9713 4.40909 13.6M7.13636 13.6C7.13636 13.2287 6.9927 12.8726 6.73696 12.6101C6.48123 12.3475 6.13439 12.2 5.77273 12.2C5.41107 12.2 5.06422 12.3475 4.80849 12.6101C4.55276 12.8726 4.40909 13.2287 4.40909 13.6M4.40909 13.6H1M12.5909 8H16M12.5909 8C12.5909 8.3713 12.4472 8.7274 12.1915 8.98995C11.9358 9.2525 11.5889 9.4 11.2273 9.4C10.8656 9.4 10.5188 9.2525 10.263 8.98995C10.0073 8.7274 9.86364 8.3713 9.86364 8M12.5909 8C12.5909 7.6287 12.4472 7.2726 12.1915 7.01005C11.9358 6.7475 11.5889 6.6 11.2273 6.6C10.8656 6.6 10.5188 6.7475 10.263 7.01005C10.0073 7.2726 9.86364 7.6287 9.86364 8M9.86364 8H1" stroke="#675B5B" stroke-width="1.5" stroke-linecap="round" stroke-linejoin="round"/>
</svg>
