<svg width="16" height="18" viewBox="0 0 16 18" fill="none" xmlns="http://www.w3.org/2000/svg">
<path d="M7.44849 2.30133C7.39333 2.47364 7.36364 2.65662 7.36364 2.84615C7.36364 3.18585 7.64873 3.46154 8 3.46154H11.8182C11.987 3.46154 12.1488 3.3967 12.2682 3.2813C12.3875 3.16589 12.4545 3.00936 12.4545 2.84615C12.4546 2.66147 12.426 2.47781 12.3697 2.30133M7.44849 2.30133C7.56899 1.92447 7.81111 1.59482 8.13937 1.36065C8.46764 1.12648 8.86481 1.00009 9.27273 1H10.5455C11.4041 1 12.1296 1.5481 12.3697 2.30133M7.44849 2.30133C7.12946 2.32021 6.81212 2.34236 6.49479 2.36697C5.53515 2.4441 4.81818 3.23426 4.81818 4.16554V5.92308M12.3697 2.30133C12.6887 2.32021 13.0061 2.34236 13.3234 2.36697C14.283 2.4441 15 3.23426 15 4.16554V12.6923C15 13.1819 14.7989 13.6515 14.4408 13.9977C14.0828 14.344 13.5972 14.5385 13.0909 14.5385H11.1818M4.81818 5.92308H1.95455C1.42764 5.92308 1 6.33662 1 6.84615V16.0769C1 16.5865 1.42764 17 1.95455 17H10.2273C10.7542 17 11.1818 16.5865 11.1818 16.0769V14.5385M4.81818 5.92308H10.2273C10.7542 5.92308 11.1818 6.33662 11.1818 6.84615V14.5385M4.18182 12.0769L5.45455 13.3077L8 10.2308" stroke="#675B5B" stroke-width="1.5" stroke-linecap="round" stroke-linejoin="round"/>
</svg>
