<svg width="16" height="16" viewBox="0 0 16 16" fill="none" xmlns="http://www.w3.org/2000/svg">
<path d="M12.6667 4.5V6.83333M12.6667 6.83333V9.16666M12.6667 6.83333H15M12.6667 6.83333H10.3333M8.58333 3.625C8.58333 4.32119 8.30676 4.98887 7.81448 5.48115C7.3222 5.97343 6.65452 6.24999 5.95833 6.24999C5.26214 6.24999 4.59446 5.97343 4.10218 5.48115C3.60989 4.98887 3.33333 4.32119 3.33333 3.625C3.33333 2.9288 3.60989 2.26113 4.10218 1.76884C4.59446 1.27656 5.26214 1 5.95833 1C6.65452 1 7.3222 1.27656 7.81448 1.76884C8.30676 2.26113 8.58333 2.9288 8.58333 3.625ZM1 13.6272V13.5417C1 12.2266 1.52239 10.9655 2.45226 10.0356C3.38213 9.10572 4.6433 8.58333 5.95833 8.58333C7.27336 8.58333 8.53453 9.10572 9.4644 10.0356C10.3943 10.9655 10.9167 12.2266 10.9167 13.5417V13.6264C9.41981 14.5279 7.70491 15.0029 5.95755 15C4.14455 15 2.44822 14.4983 1 13.6264V13.6272Z" stroke="#675B5B" stroke-width="1.5" stroke-linecap="round" stroke-linejoin="round"/>
</svg>
